<svg width="25" height="35" viewBox="0 0 25 35" fill="none" xmlns="http://www.w3.org/2000/svg">
<path fill-rule="evenodd" clip-rule="evenodd" d="M14.8226 32.7542C16.0625 32.7542 17.0676 31.7487 17.0676 30.5084L17.0676 23.2438C17.0676 21.0543 18.842 19.2793 21.0308 19.2793C22.3663 19.2793 23.1911 17.8219 22.504 16.6764L14.5027 3.33622C13.6307 1.88239 11.5244 1.88239 10.6524 3.33622L2.46678 16.9837C1.86084 17.994 2.58823 19.2793 3.76598 19.2793C5.84276 19.2793 7.5262 20.9634 7.5262 23.0408L7.5262 30.5084C7.5262 31.7487 8.53142 32.7542 9.77124 32.7542H14.8226ZM19.3127 30.5084C19.3127 32.989 17.3025 35 14.8226 35H9.77124C7.29148 35 5.28116 32.989 5.28116 30.5084L5.28116 23.0408C5.28116 22.2037 4.60282 21.5251 3.76598 21.5251C0.843163 21.5251 -0.962072 18.3355 0.541656 15.8282L8.72741 2.18074C10.4714 -0.726913 14.6838 -0.726913 16.4278 2.18074L24.4291 15.5209C26.014 18.1633 24.1113 21.5251 21.0308 21.5251C20.0819 21.5251 19.3127 22.2946 19.3127 23.2438L19.3127 30.5084Z" fill="black"/>
</svg>
