<svg width="40" height="40" viewBox="0 0 40 40" fill="none" xmlns="http://www.w3.org/2000/svg">
<path d="M10.6065 9.39346C10.216 9.00296 9.58279 9.00296 9.19229 9.39346C8.80179 9.78396 8.80179 10.4172 9.19229 10.8077L10.6065 9.39346ZM28.9913 30.6067C29.3818 30.9972 30.015 30.9972 30.4055 30.6067C30.796 30.2162 30.796 29.583 30.4055 29.1925L28.9913 30.6067ZM9.19229 29.1925C8.80179 29.583 8.80179 30.2162 9.19229 30.6067C9.58279 30.9972 10.216 30.9972 10.6065 30.6067L9.19229 29.1925ZM30.4055 10.8077C30.796 10.4172 30.796 9.78396 30.4055 9.39346C30.015 9.00296 29.3818 9.00296 28.9913 9.39346L30.4055 10.8077ZM9.19229 10.8077L28.9913 30.6067L30.4055 29.1925L10.6065 9.39346L9.19229 10.8077ZM10.6065 30.6067L30.4055 10.8077L28.9913 9.39346L9.19229 29.1925L10.6065 30.6067Z" fill="black"/>
<path d="M20 39C30.4934 39 39 30.4934 39 20C39 9.50659 30.4934 1 20 1C9.50659 1 1 9.50659 1 20C1 30.4934 9.50659 39 20 39Z" stroke="black" stroke-width="2"/>
</svg>
