<svg width="40" height="40" viewBox="0 0 40 40" fill="none" xmlns="http://www.w3.org/2000/svg">
<path d="M5.79894 19C5.24669 19 4.79895 19.4477 4.79895 20C4.79895 20.5523 5.24669 21 5.79894 21V19ZM33.799 21C34.3512 21 34.799 20.5522 34.799 20C34.799 19.4478 34.3512 19 33.799 19V21ZM18.799 34C18.799 34.5523 19.2467 35 19.799 35C20.3512 35 20.7989 34.5523 20.7989 34L18.799 34ZM20.7989 5.99999C20.7989 5.44774 20.3512 5 19.799 5C19.2467 5 18.799 5.44774 18.799 5.99999L20.7989 5.99999ZM5.79894 21L33.799 21V19L5.79894 19V21ZM20.7989 34V5.99999L18.799 5.99999V34L20.7989 34Z" fill="black"/>
<path d="M20 39C30.4934 39 39 30.4934 39 20C39 9.50659 30.4934 1 20 1C9.50659 1 1 9.50659 1 20C1 30.4934 9.50659 39 20 39Z" stroke="black" stroke-width="2"/>
</svg>
