<svg width="58" height="58" viewBox="0 0 58 58" fill="none" xmlns="http://www.w3.org/2000/svg">
<g clip-path="url(#clip0_78_21)">
<path d="M29 58C45.0163 58 58 45.0163 58 29C58 12.9837 45.0163 0 29 0C12.9837 0 0 12.9837 0 29C0 45.0163 12.9837 58 29 58Z" fill="#EB3D35"/>
<path d="M44 29L22 44V29.273V14L44 29Z" fill="white"/>
<path d="M22 44.9999C21.84 44.9999 21.679 44.9619 21.533 44.8839C21.205 44.7109 21 44.3709 21 43.9999V13.9999C21 13.6289 21.205 13.2889 21.533 13.1159C21.861 12.9419 22.257 12.9659 22.564 13.1739L44.564 28.1739C44.836 28.3599 45 28.6689 45 28.9999C45 29.3309 44.836 29.6399 44.563 29.8259L22.563 44.8259C22.394 44.9409 22.197 44.9999 22 44.9999ZM23 15.8929V42.1079L42.225 28.9999L23 15.8929Z" fill="white"/>
</g>
<defs>
<clipPath id="clip0_78_21">
<rect width="58" height="58" fill="white"/>
</clipPath>
</defs>
</svg>
