<svg fill="#000000" xmlns="http://www.w3.org/2000/svg"  viewBox="0 0 32 32" width="32px" height="32px"><path fill="#000000" d="M23,16c0,0.5-0.7,0.5-0.7,0c0-4.7-3.2-7.2-6.9-7.2c-0.5,0-0.5-0.7,0-0.7C19.6,8,23,10.9,23,16z"/><path fill="#000000" d="M19,14.6c0,0.5-0.7,0.5-0.8,0c0-1.2-0.6-1.9-1.8-1.9c-0.5,0-0.5-0.8,0-0.7C18,12,18.9,13,19,14.6z"/><path fill="#000000" d="M21,15.3c0,0.5-0.8,0.5-0.7,0c0.1-2.4-1.5-4.3-4.3-4.5c-0.5,0-0.4-0.8,0.1-0.7C19.3,10.2,21.1,12.5,21,15.3z"/><path fill="#000000" d="M21.9,20.2L21.9,20.2c-0.5,1-1.6,2-2.6,1.7l0,0c-1.1-0.3-3.6-1.6-5.2-2.9c-0.8-0.6-1.6-1.4-2.1-2.1 c-0.5-0.6-1-1.4-1.6-2.3c-1.1-1.9-1.3-2.8-1.3-2.8c-0.3-1.1,0.7-2.1,1.7-2.6h0C11.2,8.9,11.7,9,12,9.3c0,0,0.6,0.7,0.9,1.1 c0.3,0.3,0.6,0.9,0.8,1.2c0.3,0.5,0.1,1.1-0.2,1.3l-0.6,0.5c-0.3,0.3-0.3,0.7-0.3,0.7s0.9,3.4,4.2,4.3c0,0,0.5,0,0.7-0.3l0.5-0.6 c0.2-0.3,0.8-0.5,1.3-0.2c0.7,0.4,1.7,1.1,2.3,1.7C22,19.3,22.1,19.8,21.9,20.2z"/><path fill="#000000" d="M28,14L28,14c-0.1-3.7-1.2-6.2-2.7-7.6C24.7,5.9,22.1,4,16.5,4c0,0-0.3,0-0.8,0c-1.9,0-6.6,0.2-9.1,2.6 C4.8,8.3,4.1,10.9,4,14h0c-0.2,4.9,0.9,8,2.7,9.6c0.4,0.3,1.4,1.1,3.3,1.7c0,0,0,0,0,0l0,2.5c0,0,0,1,0.6,1.2 c0.1,0,0.2,0.1,0.3,0.1c0.6,0,1.1-0.7,1.8-1.4c0.6-0.7,1.1-1.2,1.4-1.7c0.4,0,0.9,0,1.4,0c0,0,0.3,0,0.8,0c1.9,0,6.6-0.2,9.1-2.6 c1.8-1.8,2.5-4.4,2.5-7.7C28,15.2,28,14.6,28,14z M26,15.7c-0.1,3-0.7,5-1.9,6.3c-2.1,1.9-6.5,2-7.7,2c-0.4,0-0.7,0-0.7,0l-0.1,0 l-0.1,0c-0.4,0-0.7,0-1,0l0,0l-1.6,1.8l-1,1.1l-0.2,0.3c-0.2,0.2-0.5,0.6-0.7,0.7c0-0.1,0-0.1,0-0.2l0-4.3c-2-0.5-2.8-1.2-3-1.4 l0,0l0,0c-1.4-1.2-2.2-4.1-2-8l0-1c0.2-2.4,0.8-4,1.8-5.1c2.1-1.9,6.5-2,7.7-2c0.4,0,0.7,0,0.7,0l0.1,0l0.1,0 c5.3,0,7.3,1.7,7.5,1.9l0,0l0,0c1.2,1,1.9,3.2,2,6.1l0,0.4C26,14.9,26,15.4,26,15.7z"/></svg>